<svg version="1.1" xmlns="http://www.w3.org/2000/svg" xmlns:xlink="http://www.w3.org/1999/xlink"><defs><symbol id="default-image-square" viewBox="0 0 400 400"><title>default image square</title><path fill="#bbbbbb" d="M0-100.063h400v600.126H0z"/><path fill="#ffffff" data-name="image coming soon" d="M131.736 102.79a3.154 3.154 0 0 0 0-4.588 3.828 3.828 0 0 0-4.86 0 3.156 3.156 0 0 0 0 4.59 3.73 3.73 0 0 0 4.86 0zm-4.95 36.054h4.92V109.69h-4.92v29.154zm14.758 0h4.92v-21.116q4.016-4.5 7.317-4.5a4.758 4.758 0 0 1 4.14 1.83q1.32 1.83 1.32 5.968v17.817h4.92v-21.115q4.018-4.5 7.318-4.5a4.692 4.692 0 0 1 4.08 1.83q1.318 1.83 1.32 5.968v17.817h4.922v-18.475q0-5.638-2.19-8.52t-6.69-2.878a8.893 8.893 0 0 0-5.008 1.53 24.563 24.563 0 0 0-4.59 4.05 8.524 8.524 0 0 0-2.788-4.11 8.36 8.36 0 0 0-5.25-1.47 9.032 9.032 0 0 0-4.888 1.41 20.113 20.113 0 0 0-4.17 3.51h-.18l-.42-4.2h-4.078v29.153zm50.72-1.44a8.91 8.91 0 0 0 6.148 2.16 11.218 11.218 0 0 0 5.13-1.23 24.166 24.166 0 0 0 4.528-2.97h.12l.42 3.48h4.08v-17.877a14.436 14.436 0 0 0-2.4-8.728q-2.4-3.27-7.74-3.27a16.62 16.62 0 0 0-6.48 1.23 31.91 31.91 0 0 0-4.978 2.55l1.98 3.418a23.6 23.6 0 0 1 3.928-2.16 11.762 11.762 0 0 1 4.77-.96 6.045 6.045 0 0 1 2.94.63 5.215 5.215 0 0 1 1.828 1.65 6.428 6.428 0 0 1 .96 2.34 13.44 13.44 0 0 1 .27 2.7q-9.36 1.02-13.647 3.57a8.084 8.084 0 0 0-4.288 7.347 7.757 7.757 0 0 0 2.43 6.115zm3.09-9.028a5.778 5.778 0 0 1 2.188-2.07 16.213 16.213 0 0 1 4.05-1.56 51.09 51.09 0 0 1 6.178-1.14v8.1a19.364 19.364 0 0 1-3.99 2.91 8.48 8.48 0 0 1-3.988.99 5.963 5.963 0 0 1-3.63-1.08 4.17 4.17 0 0 1-1.47-3.6 5.09 5.09 0 0 1 .66-2.55zm29.452 12.867a7.95 7.95 0 0 1 2.28-2.4 9.353 9.353 0 0 0 1.95.39q.99.09 1.83.09h5.034a9.727 9.727 0 0 1 4.38.78 2.892 2.892 0 0 1 1.5 2.82 4.21 4.21 0 0 1-.66 2.22 6.206 6.206 0 0 1-1.86 1.888 10.574 10.574 0 0 1-2.91 1.32 13.34 13.34 0 0 1-3.81.51 11.856 11.856 0 0 1-6.208-1.38 4.2 4.2 0 0 1-2.25-3.718 5.04 5.04 0 0 1 .724-2.52zm-4.17 6.54a7.6 7.6 0 0 0 2.46 2.46 11.972 11.972 0 0 0 3.81 1.528 21.986 21.986 0 0 0 4.92.51 21.61 21.61 0 0 0 6.148-.81 15.46 15.46 0 0 0 4.65-2.188 9.92 9.92 0 0 0 2.938-3.21 7.83 7.83 0 0 0 1.02-3.87 5.853 5.853 0 0 0-2.55-5.308q-2.55-1.65-7.648-1.65h-5.64q-3 0-4.078-.9a2.84 2.84 0 0 1-1.08-2.28 3.544 3.544 0 0 1 .54-2.008 7.034 7.034 0 0 1 1.32-1.47 10.992 10.992 0 0 0 2.16.75 9.618 9.618 0 0 0 2.22.27 11.942 11.942 0 0 0 4.168-.72 10.417 10.417 0 0 0 3.39-2.01 9.245 9.245 0 0 0 2.28-3.18 10.32 10.32 0 0 0 .84-4.228 8.572 8.572 0 0 0-2.4-6h6v-3.778h-10.14a13.52 13.52 0 0 0-1.89-.51 11.464 11.464 0 0 0-2.25-.21 12.438 12.438 0 0 0-4.228.72 10.442 10.442 0 0 0-3.51 2.07 9.743 9.743 0 0 0-2.37 3.27 10.352 10.352 0 0 0-.87 4.318 9.07 9.07 0 0 0 1.17 4.65 11.91 11.91 0 0 0 2.61 3.208v.24a9.178 9.178 0 0 0-2.16 2.16 5.818 5.818 0 0 0-.27 6.15 5.7 5.7 0 0 0 1.83 1.828v.24a11.986 11.986 0 0 0-3.12 3.06 6.2 6.2 0 0 0-1.14 3.54 6.37 6.37 0 0 0 .87 3.358zm8.82-21.957a6.072 6.072 0 0 1-1.98-1.38 6.22 6.22 0 0 1-1.35-2.19 8.267 8.267 0 0 1-.48-2.908 6.707 6.707 0 0 1 1.8-5.01 6.3 6.3 0 0 1 8.758 0 6.707 6.707 0 0 1 1.8 5.01 8.313 8.313 0 0 1-.48 2.91 6.25 6.25 0 0 1-1.35 2.19 6.086 6.086 0 0 1-1.98 1.378 6.088 6.088 0 0 1-4.74 0zm20.845 4.92a13.887 13.887 0 0 0 2.97 4.77 12.992 12.992 0 0 0 4.44 3 14.287 14.287 0 0 0 5.49 1.05 14.8 14.8 0 0 0 5.338-.9 24.757 24.757 0 0 0 4.26-2.1l-1.74-3.24a17.116 17.116 0 0 1-3.39 1.65 11.464 11.464 0 0 1-3.87.63 8.942 8.942 0 0 1-6.808-2.76 11.587 11.587 0 0 1-2.91-7.5h19.677a16.854 16.854 0 0 0 .18-2.7 19.065 19.065 0 0 0-.78-5.64 12.668 12.668 0 0 0-2.25-4.318 9.655 9.655 0 0 0-3.66-2.76 12.21 12.21 0 0 0-4.948-.96 11.742 11.742 0 0 0-4.86 1.05 12.74 12.74 0 0 0-4.17 3.03 15.1 15.1 0 0 0-2.94 4.83 17.656 17.656 0 0 0-1.108 6.448 17.876 17.876 0 0 0 1.078 6.42zm3.72-8.64a13.254 13.254 0 0 1 .99-3.928 9.562 9.562 0 0 1 1.89-2.878 8.223 8.223 0 0 1 2.55-1.8 7.192 7.192 0 0 1 2.97-.63 6.4 6.4 0 0 1 5.308 2.37q1.89 2.37 1.89 6.868h-15.6zm-144.24 80.655a13.937 13.937 0 0 0 2.88 4.8 12.137 12.137 0 0 0 4.35 2.97 14.272 14.272 0 0 0 5.4 1.02 12.98 12.98 0 0 0 5.068-1.02 16.025 16.025 0 0 0 4.41-2.76l-2.22-3.238a13.69 13.69 0 0 1-3.03 2.07 8.722 8.722 0 0 1-7.468.06 8.076 8.076 0 0 1-2.85-2.28 10.992 10.992 0 0 1-1.83-3.51 14.727 14.727 0 0 1-.66-4.56 14.45 14.45 0 0 1 .69-4.588 11.433 11.433 0 0 1 1.89-3.57 8.186 8.186 0 0 1 6.54-3.118 6.828 6.828 0 0 1 3.15.72 13.776 13.776 0 0 1 2.728 1.86l2.46-3.18a15.79 15.79 0 0 0-3.57-2.43 10.833 10.833 0 0 0-4.95-1.05 14.34 14.34 0 0 0-5.368 1.02 12.773 12.773 0 0 0-4.47 3 14.643 14.643 0 0 0-3.058 4.83 17.416 17.416 0 0 0-1.14 6.507 18.557 18.557 0 0 0 1.05 6.448zm26.155 0a14.443 14.443 0 0 0 2.97 4.8 12.62 12.62 0 0 0 4.29 2.97 13.418 13.418 0 0 0 10.257 0 12.63 12.63 0 0 0 4.29-2.97 14.458 14.458 0 0 0 2.968-4.8 17.652 17.652 0 0 0 1.11-6.448 17.836 17.836 0 0 0-1.11-6.508 14.82 14.82 0 0 0-2.97-4.83 12.455 12.455 0 0 0-4.288-3 13.405 13.405 0 0 0-10.258 0 12.446 12.446 0 0 0-4.29 3 14.8 14.8 0 0 0-2.97 4.83 17.837 17.837 0 0 0-1.108 6.508 17.652 17.652 0 0 0 1.11 6.45zm4.59-11.037a11.15 11.15 0 0 1 1.71-3.57 7.737 7.737 0 0 1 2.67-2.31 7.63 7.63 0 0 1 6.837 0 7.755 7.755 0 0 1 2.67 2.31 11.192 11.192 0 0 1 1.71 3.57 16.454 16.454 0 0 1 .6 4.59 16.127 16.127 0 0 1-.6 4.558 10.847 10.847 0 0 1-1.71 3.51 7.866 7.866 0 0 1-2.67 2.28 7.62 7.62 0 0 1-6.838 0 7.847 7.847 0 0 1-2.67-2.28 10.806 10.806 0 0 1-1.71-3.51 16.09 16.09 0 0 1-.6-4.558 16.417 16.417 0 0 1 .6-4.59zM169.5 210.83h4.92v-21.116q4.017-4.5 7.318-4.5a4.76 4.76 0 0 1 4.14 1.83q1.317 1.83 1.32 5.968v17.816h4.918v-21.114q4.018-4.5 7.318-4.5a4.694 4.694 0 0 1 4.08 1.83q1.32 1.83 1.32 5.968v17.816h4.918v-18.475q0-5.637-2.19-8.518t-6.688-2.88a8.89 8.89 0 0 0-5.01 1.53 24.6 24.6 0 0 0-4.588 4.05 8.535 8.535 0 0 0-2.79-4.11 8.36 8.36 0 0 0-5.248-1.47 9.042 9.042 0 0 0-4.89 1.41 20.2 20.2 0 0 0-4.17 3.51H174l-.42-4.2h-4.08v29.153zm54.68-36.053a3.154 3.154 0 0 0 0-4.59 3.827 3.827 0 0 0-4.86 0 3.154 3.154 0 0 0 0 4.59 3.73 3.73 0 0 0 4.857 0zm-4.95 36.052h4.92v-29.155h-4.92v29.154zm14.756 0h4.914v-21.116a26.146 26.146 0 0 1 3.96-3.36 7.174 7.174 0 0 1 4.02-1.14 4.827 4.827 0 0 1 4.2 1.83q1.318 1.83 1.32 5.97v17.815h4.918v-18.477q0-5.637-2.13-8.518t-6.75-2.88a10.108 10.108 0 0 0-5.368 1.41 23.785 23.785 0 0 0-4.41 3.51h-.18l-.42-4.2h-4.078v29.153zm35.633 2.4a7.953 7.953 0 0 1 2.28-2.4 9.34 9.34 0 0 0 1.948.39q.99.09 1.83.09h5.04a9.744 9.744 0 0 1 4.378.78 2.894 2.894 0 0 1 1.5 2.82 4.214 4.214 0 0 1-.66 2.218 6.2 6.2 0 0 1-1.86 1.89 10.618 10.618 0 0 1-2.91 1.32 13.342 13.342 0 0 1-3.81.51 11.863 11.863 0 0 1-6.207-1.38 4.2 4.2 0 0 1-2.25-3.72 5.04 5.04 0 0 1 .717-2.52zm-4.17 6.538a7.585 7.585 0 0 0 2.46 2.46 11.956 11.956 0 0 0 3.81 1.53 22.044 22.044 0 0 0 4.918.51 21.6 21.6 0 0 0 6.148-.81 15.413 15.413 0 0 0 4.65-2.19 9.92 9.92 0 0 0 2.94-3.21 7.84 7.84 0 0 0 1.02-3.87 5.854 5.854 0 0 0-2.55-5.308q-2.55-1.65-7.65-1.65h-5.638q-3 0-4.08-.9a2.838 2.838 0 0 1-1.08-2.28 3.545 3.545 0 0 1 .54-2.01 7.024 7.024 0 0 1 1.32-1.468 11.022 11.022 0 0 0 2.16.75 9.61 9.61 0 0 0 2.22.27 11.942 11.942 0 0 0 4.17-.72 10.425 10.425 0 0 0 3.388-2.01 9.264 9.264 0 0 0 2.28-3.18 10.32 10.32 0 0 0 .84-4.23 8.566 8.566 0 0 0-2.4-6h6v-3.78h-10.14a13.88 13.88 0 0 0-1.89-.51 11.54 11.54 0 0 0-2.25-.21 12.448 12.448 0 0 0-4.23.72 10.44 10.44 0 0 0-3.51 2.07 9.75 9.75 0 0 0-2.368 3.27 10.34 10.34 0 0 0-.87 4.32 9.065 9.065 0 0 0 1.17 4.648 11.9 11.9 0 0 0 2.61 3.21v.24a9.213 9.213 0 0 0-2.16 2.16 5.824 5.824 0 0 0-.27 6.148 5.71 5.71 0 0 0 1.83 1.83v.24a11.955 11.955 0 0 0-3.12 3.06 6.2 6.2 0 0 0-1.14 3.538 6.37 6.37 0 0 0 .87 3.362zm8.818-21.956a6.1 6.1 0 0 1-1.98-1.38 6.21 6.21 0 0 1-1.35-2.19 8.277 8.277 0 0 1-.48-2.91 6.712 6.712 0 0 1 1.8-5.008 6.306 6.306 0 0 1 8.76 0 6.712 6.712 0 0 1 1.8 5.01 8.3 8.3 0 0 1-.48 2.91 6.238 6.238 0 0 1-1.35 2.188 6.115 6.115 0 0 1-1.98 1.38 6.088 6.088 0 0 1-4.742 0zm-135.03 81.7a18.463 18.463 0 0 0 4.918 2.88 15.71 15.71 0 0 0 5.94 1.14 14.134 14.134 0 0 0 4.588-.69 9.726 9.726 0 0 0 3.36-1.89 8 8 0 0 0 2.04-2.76 8.223 8.223 0 0 0 .688-3.36 7.01 7.01 0 0 0-.81-3.48 8.12 8.12 0 0 0-2.07-2.428 12.125 12.125 0 0 0-2.848-1.65q-1.592-.66-3.15-1.26-1.26-.478-2.43-.93a11.74 11.74 0 0 1-2.07-1.02 5.1 5.1 0 0 1-1.44-1.32 2.945 2.945 0 0 1-.54-1.77 3.984 3.984 0 0 1 1.29-2.938 5.613 5.613 0 0 1 4.05-1.26 8.618 8.618 0 0 1 3.54.72 15.744 15.744 0 0 1 3.12 1.86l2.34-3.12a15.82 15.82 0 0 0-3.99-2.34 14.06 14.06 0 0 0-9.27-.33 9.366 9.366 0 0 0-3.148 1.74 7.514 7.514 0 0 0-1.98 2.64 7.86 7.86 0 0 0-.69 3.27 6.142 6.142 0 0 0 .78 3.18 8.5 8.5 0 0 0 2.01 2.308 12.4 12.4 0 0 0 2.79 1.68q1.56.69 3.12 1.23l2.4.96a11.236 11.236 0 0 1 2.13 1.11 5.98 5.98 0 0 1 1.528 1.47 3.32 3.32 0 0 1 .6 1.98 4.224 4.224 0 0 1-1.44 3.238 6.2 6.2 0 0 1-4.32 1.32 10.667 10.667 0 0 1-4.648-.96 19.643 19.643 0 0 1-3.93-2.52zm27.323-4.77a14.425 14.425 0 0 0 2.97 4.8 12.614 12.614 0 0 0 4.29 2.97 13.405 13.405 0 0 0 10.257 0 12.614 12.614 0 0 0 4.29-2.97 14.476 14.476 0 0 0 2.97-4.8 17.673 17.673 0 0 0 1.11-6.448 17.86 17.86 0 0 0-1.11-6.51 14.85 14.85 0 0 0-2.97-4.828 12.452 12.452 0 0 0-4.29-3 13.405 13.405 0 0 0-10.258 0 12.452 12.452 0 0 0-4.29 3 14.8 14.8 0 0 0-2.97 4.83 17.817 17.817 0 0 0-1.11 6.508 17.63 17.63 0 0 0 1.11 6.453zm4.59-11.037a11.14 11.14 0 0 1 1.71-3.57 7.727 7.727 0 0 1 2.67-2.31 7.623 7.623 0 0 1 6.838 0 7.742 7.742 0 0 1 2.67 2.31 11.183 11.183 0 0 1 1.71 3.57 16.487 16.487 0 0 1 .6 4.59 16.163 16.163 0 0 1-.6 4.558 10.843 10.843 0 0 1-1.71 3.51 7.855 7.855 0 0 1-2.67 2.28 7.623 7.623 0 0 1-6.84 0 7.84 7.84 0 0 1-2.67-2.28 10.8 10.8 0 0 1-1.708-3.51 16.127 16.127 0 0 1-.6-4.56 16.45 16.45 0 0 1 .598-4.584zm27.924 11.038a14.425 14.425 0 0 0 2.97 4.8 12.614 12.614 0 0 0 4.288 2.97 13.405 13.405 0 0 0 10.258 0 12.614 12.614 0 0 0 4.29-2.97 14.476 14.476 0 0 0 2.97-4.8 17.673 17.673 0 0 0 1.11-6.45 17.86 17.86 0 0 0-1.11-6.508 14.85 14.85 0 0 0-2.97-4.83 12.452 12.452 0 0 0-4.29-3 13.405 13.405 0 0 0-10.258 0 12.452 12.452 0 0 0-4.29 3 14.8 14.8 0 0 0-2.968 4.83 17.817 17.817 0 0 0-1.11 6.51 17.63 17.63 0 0 0 1.108 6.452zm4.59-11.038a11.14 11.14 0 0 1 1.708-3.57 7.736 7.736 0 0 1 2.67-2.31 7.623 7.623 0 0 1 6.84 0 7.742 7.742 0 0 1 2.668 2.31 11.183 11.183 0 0 1 1.71 3.57 16.487 16.487 0 0 1 .6 4.59 16.163 16.163 0 0 1-.6 4.558 10.843 10.843 0 0 1-1.71 3.51 7.855 7.855 0 0 1-2.67 2.28 7.623 7.623 0 0 1-6.838 0 7.85 7.85 0 0 1-2.67-2.28 10.8 10.8 0 0 1-1.71-3.51 16.127 16.127 0 0 1-.6-4.56 16.45 16.45 0 0 1 .6-4.584zm28.973 19.106h4.92V261.7a26.025 26.025 0 0 1 3.958-3.36 7.17 7.17 0 0 1 4.02-1.14 4.824 4.824 0 0 1 4.2 1.83q1.318 1.83 1.32 5.97v17.816h4.918V264.34q0-5.64-2.13-8.52t-6.748-2.88a10.1 10.1 0 0 0-5.37 1.41 23.752 23.752 0 0 0-4.408 3.51h-.18l-.42-4.2h-4.08v29.154z"/></symbol><symbol id="default-image-rectangle" viewBox="0 0 400 600"><title>default image rectangle</title><path fill="#bbbbbb" class="cls-1" d="M0 0h400v600H0z"/><path fill="#ffffff" data-name="image coming soon" class="cls-2" d="M131.736 202.81a3.154 3.154 0 0 0 0-4.588 3.83 3.83 0 0 0-4.86 0 3.156 3.156 0 0 0 0 4.59 3.732 3.732 0 0 0 4.86 0zm-4.95 36.046h4.92v-29.148h-4.92v29.148zm14.758 0h4.92v-21.11q4.016-4.5 7.317-4.5a4.758 4.758 0 0 1 4.14 1.83q1.32 1.83 1.32 5.966v17.813h4.92v-21.11q4.018-4.5 7.318-4.5a4.692 4.692 0 0 1 4.08 1.83q1.318 1.83 1.32 5.967v17.813h4.922v-18.47q0-5.638-2.19-8.518t-6.69-2.88a8.9 8.9 0 0 0-5.008 1.53 24.636 24.636 0 0 0-4.59 4.05 8.534 8.534 0 0 0-2.788-4.11 8.366 8.366 0 0 0-5.25-1.47 9.04 9.04 0 0 0-4.888 1.41 20.144 20.144 0 0 0-4.17 3.51h-.18l-.42-4.2h-4.078v29.147zm50.72-1.44a8.915 8.915 0 0 0 6.148 2.16 11.218 11.218 0 0 0 5.13-1.23 24.16 24.16 0 0 0 4.528-2.968h.12l.42 3.478h4.08v-17.873a14.43 14.43 0 0 0-2.4-8.726q-2.4-3.27-7.74-3.27a16.637 16.637 0 0 0-6.48 1.23 31.91 31.91 0 0 0-4.978 2.55l1.98 3.418a23.6 23.6 0 0 1 3.928-2.16 11.762 11.762 0 0 1 4.77-.96 6.045 6.045 0 0 1 2.94.63 5.215 5.215 0 0 1 1.828 1.65 6.428 6.428 0 0 1 .96 2.34 13.43 13.43 0 0 1 .27 2.7q-9.36 1.02-13.647 3.568a8.084 8.084 0 0 0-4.288 7.347 7.756 7.756 0 0 0 2.43 6.117zm3.09-9.026a5.783 5.783 0 0 1 2.188-2.07 16.175 16.175 0 0 1 4.05-1.558 51.286 51.286 0 0 1 6.178-1.14v8.1a19.393 19.393 0 0 1-3.99 2.91 8.48 8.48 0 0 1-3.988.988 5.963 5.963 0 0 1-3.63-1.08 4.17 4.17 0 0 1-1.47-3.6 5.09 5.09 0 0 1 .66-2.55zm29.452 12.865a7.94 7.94 0 0 1 2.28-2.4 9.353 9.353 0 0 0 1.95.39q.99.09 1.83.09h5.034a9.74 9.74 0 0 1 4.38.78 2.89 2.89 0 0 1 1.5 2.818 4.206 4.206 0 0 1-.66 2.22 6.206 6.206 0 0 1-1.86 1.89 10.574 10.574 0 0 1-2.91 1.318 13.3 13.3 0 0 1-3.81.51 11.867 11.867 0 0 1-6.208-1.378 4.2 4.2 0 0 1-2.25-3.72 5.037 5.037 0 0 1 .724-2.517zm-4.17 6.538a7.608 7.608 0 0 0 2.46 2.46 11.972 11.972 0 0 0 3.81 1.528 22.044 22.044 0 0 0 4.92.51 21.61 21.61 0 0 0 6.148-.81 15.46 15.46 0 0 0 4.65-2.188 9.917 9.917 0 0 0 2.938-3.21 7.827 7.827 0 0 0 1.02-3.867 5.85 5.85 0 0 0-2.55-5.308q-2.55-1.65-7.648-1.65h-5.64q-3 0-4.078-.9a2.84 2.84 0 0 1-1.08-2.278 3.54 3.54 0 0 1 .54-2.01 7.06 7.06 0 0 1 1.32-1.47 10.927 10.927 0 0 0 2.16.75 9.618 9.618 0 0 0 2.22.27 11.942 11.942 0 0 0 4.168-.72 10.432 10.432 0 0 0 3.39-2.01 9.245 9.245 0 0 0 2.28-3.178 10.312 10.312 0 0 0 .84-4.228 8.572 8.572 0 0 0-2.4-6h6v-3.778h-10.14a13.66 13.66 0 0 0-1.89-.51 11.464 11.464 0 0 0-2.25-.21 12.438 12.438 0 0 0-4.228.72 10.442 10.442 0 0 0-3.51 2.07 9.74 9.74 0 0 0-2.37 3.268 10.347 10.347 0 0 0-.87 4.318 9.064 9.064 0 0 0 1.17 4.648 11.925 11.925 0 0 0 2.61 3.21v.24a9.173 9.173 0 0 0-2.16 2.158 5.815 5.815 0 0 0-.27 6.147 5.706 5.706 0 0 0 1.83 1.83v.24a11.968 11.968 0 0 0-3.12 3.058 6.2 6.2 0 0 0-1.14 3.54 6.37 6.37 0 0 0 .87 3.36zm8.82-21.952a6.072 6.072 0 0 1-1.98-1.378 6.226 6.226 0 0 1-1.35-2.19 8.275 8.275 0 0 1-.48-2.908 6.706 6.706 0 0 1 1.8-5.008 6.3 6.3 0 0 1 8.758 0 6.706 6.706 0 0 1 1.8 5.008 8.32 8.32 0 0 1-.48 2.91 6.255 6.255 0 0 1-1.35 2.188 6.086 6.086 0 0 1-1.98 1.38 6.088 6.088 0 0 1-4.74 0zm20.845 4.92a13.863 13.863 0 0 0 2.97 4.767 12.992 12.992 0 0 0 4.44 3 14.287 14.287 0 0 0 5.49 1.05 14.8 14.8 0 0 0 5.338-.9 24.828 24.828 0 0 0 4.26-2.1l-1.74-3.24a17.06 17.06 0 0 1-3.39 1.65 11.49 11.49 0 0 1-3.87.63 8.944 8.944 0 0 1-6.808-2.758 11.584 11.584 0 0 1-2.91-7.5h19.677a16.85 16.85 0 0 0 .18-2.7 19.053 19.053 0 0 0-.78-5.64 12.654 12.654 0 0 0-2.25-4.317 9.655 9.655 0 0 0-3.66-2.76 12.226 12.226 0 0 0-4.948-.96 11.758 11.758 0 0 0-4.86 1.05 12.75 12.75 0 0 0-4.17 3.03 15.107 15.107 0 0 0-2.94 4.827 17.654 17.654 0 0 0-1.108 6.448 17.86 17.86 0 0 0 1.078 6.42zm3.72-8.637a13.254 13.254 0 0 1 .99-3.93 9.57 9.57 0 0 1 1.89-2.877 8.223 8.223 0 0 1 2.55-1.8 7.19 7.19 0 0 1 2.97-.63 6.4 6.4 0 0 1 5.308 2.37q1.89 2.37 1.89 6.867h-15.6zM109.78 302.76a13.942 13.942 0 0 0 2.88 4.8 12.132 12.132 0 0 0 4.35 2.97 14.253 14.253 0 0 0 5.4 1.02 12.963 12.963 0 0 0 5.068-1.02 16 16 0 0 0 4.41-2.76l-2.22-3.238a13.69 13.69 0 0 1-3.03 2.07 8.722 8.722 0 0 1-7.468.06 8.076 8.076 0 0 1-2.85-2.28 10.987 10.987 0 0 1-1.83-3.51 14.725 14.725 0 0 1-.66-4.557 14.44 14.44 0 0 1 .69-4.588 11.433 11.433 0 0 1 1.89-3.57 8.19 8.19 0 0 1 6.54-3.117 6.84 6.84 0 0 1 3.15.72 13.825 13.825 0 0 1 2.728 1.86l2.46-3.18a15.82 15.82 0 0 0-3.57-2.43 10.833 10.833 0 0 0-4.95-1.05 14.32 14.32 0 0 0-5.368 1.02 12.757 12.757 0 0 0-4.47 3 14.638 14.638 0 0 0-3.058 4.83 17.407 17.407 0 0 0-1.14 6.506 18.555 18.555 0 0 0 1.05 6.445zm26.155 0a14.45 14.45 0 0 0 2.97 4.8 12.616 12.616 0 0 0 4.29 2.97 13.405 13.405 0 0 0 10.257 0 12.625 12.625 0 0 0 4.29-2.97 14.463 14.463 0 0 0 2.968-4.8 19.455 19.455 0 0 0 0-12.954 14.814 14.814 0 0 0-2.97-4.828 12.44 12.44 0 0 0-4.288-3 13.405 13.405 0 0 0-10.258 0 12.43 12.43 0 0 0-4.29 3 14.8 14.8 0 0 0-2.97 4.828 19.47 19.47 0 0 0 0 12.955zm4.59-11.035a11.15 11.15 0 0 1 1.71-3.57 7.734 7.734 0 0 1 2.67-2.308 7.63 7.63 0 0 1 6.837 0 7.752 7.752 0 0 1 2.67 2.31 11.192 11.192 0 0 1 1.71 3.568 16.442 16.442 0 0 1 .6 4.588 16.125 16.125 0 0 1-.6 4.558 10.84 10.84 0 0 1-1.71 3.51 7.866 7.866 0 0 1-2.67 2.28 7.62 7.62 0 0 1-6.838 0 7.847 7.847 0 0 1-2.67-2.28 10.8 10.8 0 0 1-1.71-3.51 16.09 16.09 0 0 1-.6-4.557 16.405 16.405 0 0 1 .6-4.588zm28.973 19.1h4.92v-21.11q4.017-4.5 7.318-4.5a4.76 4.76 0 0 1 4.14 1.83q1.317 1.83 1.32 5.967v17.813h4.918v-21.11q4.018-4.5 7.318-4.5a4.694 4.694 0 0 1 4.08 1.83q1.32 1.83 1.32 5.967v17.813h4.918v-18.47q0-5.637-2.19-8.517t-6.688-2.88a8.89 8.89 0 0 0-5.01 1.53 24.56 24.56 0 0 0-4.588 4.05 8.527 8.527 0 0 0-2.79-4.11 8.355 8.355 0 0 0-5.248-1.47 9.042 9.042 0 0 0-4.89 1.41 20.19 20.19 0 0 0-4.17 3.51H174l-.42-4.2h-4.08v29.147zm54.68-36.045a3.153 3.153 0 0 0 0-4.588 3.827 3.827 0 0 0-4.86 0 3.153 3.153 0 0 0 0 4.588 3.732 3.732 0 0 0 4.86.002zm-4.95 36.045h4.92V281.68h-4.92v29.147zm14.756 0h4.916v-21.11a26.073 26.073 0 0 1 3.96-3.358 7.174 7.174 0 0 1 4.02-1.14 4.827 4.827 0 0 1 4.2 1.83q1.318 1.83 1.32 5.967v17.813h4.918v-18.472q0-5.637-2.13-8.517t-6.75-2.88a10.108 10.108 0 0 0-5.368 1.41 23.778 23.778 0 0 0-4.41 3.51h-.18l-.42-4.2h-4.078v29.147zm35.633 2.4a7.95 7.95 0 0 1 2.28-2.4 9.34 9.34 0 0 0 1.95.39q.99.09 1.83.09h5.038a9.744 9.744 0 0 1 4.38.78 2.892 2.892 0 0 1 1.5 2.82 4.214 4.214 0 0 1-.66 2.218 6.2 6.2 0 0 1-1.86 1.89 10.618 10.618 0 0 1-2.91 1.32 13.342 13.342 0 0 1-3.81.508 11.863 11.863 0 0 1-6.208-1.378 4.2 4.2 0 0 1-2.25-3.72 5.04 5.04 0 0 1 .72-2.516zm-4.17 6.538a7.6 7.6 0 0 0 2.46 2.46 11.978 11.978 0 0 0 3.81 1.528 22.044 22.044 0 0 0 4.92.51 21.6 21.6 0 0 0 6.147-.81 15.435 15.435 0 0 0 4.65-2.188 9.91 9.91 0 0 0 2.94-3.21 7.837 7.837 0 0 0 1.02-3.867 5.854 5.854 0 0 0-2.55-5.308q-2.55-1.648-7.65-1.65h-5.638q-3 0-4.08-.9a2.84 2.84 0 0 1-1.08-2.278 3.544 3.544 0 0 1 .54-2.01 7.054 7.054 0 0 1 1.32-1.47 10.96 10.96 0 0 0 2.16.75 9.61 9.61 0 0 0 2.22.27 11.942 11.942 0 0 0 4.17-.72 10.443 10.443 0 0 0 3.388-2.01 9.245 9.245 0 0 0 2.28-3.178 10.312 10.312 0 0 0 .84-4.228 8.378 8.378 0 0 0-.69-3.42 8.466 8.466 0 0 0-1.71-2.578h6v-3.778h-10.14a13.738 13.738 0 0 0-1.89-.51 11.54 11.54 0 0 0-2.248-.21 12.448 12.448 0 0 0-4.23.72 10.454 10.454 0 0 0-3.51 2.07 9.75 9.75 0 0 0-2.368 3.268 10.33 10.33 0 0 0-.87 4.318 9.064 9.064 0 0 0 1.17 4.648 11.89 11.89 0 0 0 2.61 3.21v.24a9.213 9.213 0 0 0-2.16 2.158 5.822 5.822 0 0 0-.27 6.148 5.716 5.716 0 0 0 1.83 1.83v.24a11.955 11.955 0 0 0-3.12 3.058 6.193 6.193 0 0 0-1.14 3.538 6.37 6.37 0 0 0 .87 3.36zm8.82-21.95a6.1 6.1 0 0 1-1.98-1.38 6.21 6.21 0 0 1-1.35-2.19 8.267 8.267 0 0 1-.48-2.91 6.71 6.71 0 0 1 1.8-5.007 6.306 6.306 0 0 1 8.76 0 6.71 6.71 0 0 1 1.8 5.008 8.29 8.29 0 0 1-.48 2.91 6.238 6.238 0 0 1-1.35 2.188 6.115 6.115 0 0 1-1.98 1.38 6.1 6.1 0 0 1-4.74 0zM139.234 379.5a18.463 18.463 0 0 0 4.92 2.88 15.71 15.71 0 0 0 5.938 1.138 14.135 14.135 0 0 0 4.59-.69 9.742 9.742 0 0 0 3.358-1.89 7.99 7.99 0 0 0 2.04-2.758 8.22 8.22 0 0 0 .69-3.358 7.005 7.005 0 0 0-.81-3.48 8.12 8.12 0 0 0-2.07-2.428 12.088 12.088 0 0 0-2.848-1.65q-1.592-.66-3.15-1.26-1.26-.478-2.43-.928a11.67 11.67 0 0 1-2.07-1.02 5.113 5.113 0 0 1-1.44-1.32 2.947 2.947 0 0 1-.54-1.77 3.984 3.984 0 0 1 1.29-2.938 5.617 5.617 0 0 1 4.05-1.26 8.618 8.618 0 0 1 3.54.72 15.69 15.69 0 0 1 3.12 1.86l2.34-3.12a15.82 15.82 0 0 0-3.99-2.338 14.06 14.06 0 0 0-9.27-.33 9.366 9.366 0 0 0-3.148 1.74 7.52 7.52 0 0 0-1.98 2.638 7.86 7.86 0 0 0-.69 3.27 6.138 6.138 0 0 0 .78 3.178 8.5 8.5 0 0 0 2.01 2.31 12.392 12.392 0 0 0 2.79 1.678q1.56.69 3.12 1.23l2.4.96a11.3 11.3 0 0 1 2.13 1.11 5.992 5.992 0 0 1 1.528 1.468 3.32 3.32 0 0 1 .6 1.98 4.222 4.222 0 0 1-1.44 3.238 6.2 6.2 0 0 1-4.32 1.32 10.667 10.667 0 0 1-4.648-.96 19.68 19.68 0 0 1-3.93-2.52zm27.324-4.768a14.43 14.43 0 0 0 2.968 4.8 12.628 12.628 0 0 0 4.29 2.97 13.418 13.418 0 0 0 10.257 0 12.628 12.628 0 0 0 4.29-2.97 14.48 14.48 0 0 0 2.97-4.8 19.455 19.455 0 0 0 0-12.955 14.833 14.833 0 0 0-2.97-4.828 12.44 12.44 0 0 0-4.29-3 13.405 13.405 0 0 0-10.258 0 12.44 12.44 0 0 0-4.29 3 14.78 14.78 0 0 0-2.968 4.827 19.455 19.455 0 0 0 0 12.955zm4.588-11.036a11.144 11.144 0 0 1 1.71-3.568 7.724 7.724 0 0 1 2.67-2.31 7.623 7.623 0 0 1 6.838 0 7.74 7.74 0 0 1 2.67 2.31 11.187 11.187 0 0 1 1.71 3.568 16.484 16.484 0 0 1 .6 4.588 16.163 16.163 0 0 1-.6 4.56 10.847 10.847 0 0 1-1.71 3.507 7.863 7.863 0 0 1-2.67 2.28 7.623 7.623 0 0 1-6.84 0 7.847 7.847 0 0 1-2.67-2.28 10.805 10.805 0 0 1-1.708-3.507 16.127 16.127 0 0 1-.6-4.56 16.447 16.447 0 0 1 .6-4.583zm27.924 11.036a14.43 14.43 0 0 0 2.97 4.8 12.628 12.628 0 0 0 4.288 2.97 13.418 13.418 0 0 0 10.258 0 12.628 12.628 0 0 0 4.29-2.97 14.48 14.48 0 0 0 2.97-4.8 19.455 19.455 0 0 0 0-12.955 14.833 14.833 0 0 0-2.97-4.828 12.44 12.44 0 0 0-4.29-3 13.405 13.405 0 0 0-10.258 0 12.44 12.44 0 0 0-4.29 3 14.78 14.78 0 0 0-2.968 4.827 19.455 19.455 0 0 0 0 12.955zm4.59-11.036a11.144 11.144 0 0 1 1.708-3.568 7.733 7.733 0 0 1 2.67-2.31 7.623 7.623 0 0 1 6.84 0 7.74 7.74 0 0 1 2.668 2.31 11.187 11.187 0 0 1 1.71 3.568 16.484 16.484 0 0 1 .6 4.588 16.163 16.163 0 0 1-.6 4.56 10.847 10.847 0 0 1-1.71 3.507 7.863 7.863 0 0 1-2.67 2.28 7.623 7.623 0 0 1-6.838 0 7.857 7.857 0 0 1-2.67-2.28 10.805 10.805 0 0 1-1.71-3.507 16.127 16.127 0 0 1-.6-4.56 16.447 16.447 0 0 1 .6-4.583zm28.973 19.1h4.92v-21.11a26.025 26.025 0 0 1 3.958-3.358 7.17 7.17 0 0 1 4.02-1.14 4.825 4.825 0 0 1 4.2 1.83q1.318 1.83 1.32 5.968V382.8h4.918v-18.474q0-5.637-2.13-8.517t-6.747-2.88a10.1 10.1 0 0 0-5.37 1.41 23.71 23.71 0 0 0-4.408 3.51h-.18l-.42-4.2h-4.08v29.15z"/></symbol></defs></svg>