<svg version="1.1" xmlns="http://www.w3.org/2000/svg" xmlns:xlink="http://www.w3.org/1999/xlink">
	<defs>
		<symbol id="icon-search" viewBox="0 0 30 32"><title>search</title><path d="M20.57 14.857q0-3.304-2.347-5.652T12.57 6.857 6.92 9.205t-2.35 5.652 2.35 5.652 5.65 2.347 5.653-2.348 2.348-5.653zm9.144 14.857q0 .93-.68 1.607T27.43 32q-.964 0-1.607-.68l-6.124-6.106q-3.196 2.214-7.125 2.214-2.553 0-4.883-.99t-4.018-2.68T.99 19.74 0 14.856t.99-4.884 2.68-4.018 4.017-2.68 4.884-.99 4.885.99 4.018 2.68 2.68 4.018.99 4.884q0 3.93-2.214 7.125l6.124 6.126q.66.66.66 1.607z"/></symbol>
		<symbol id="icon-envelope" viewBox="0 0 32 32"><title>envelope</title><path d="M29.714 26.857V13.143q-.57.643-1.232 1.18-4.786 3.678-7.607 6.035-.91.768-1.482 1.196t-1.545.866-1.83.438h-.036q-.857 0-1.83-.438t-1.545-.866-1.482-1.196Q8.305 18 3.518 14.322q-.66-.536-1.232-1.18v13.715q0 .232.17.402t.402.17h26.286q.232 0 .402-.17t.17-.403zm0-18.768v-.44l-.01-.23-.053-.224-.097-.16-.16-.135-.25-.044H2.855q-.232 0-.402.17t-.17.402q0 3 2.625 5.07 3.445 2.715 7.16 5.662.107.09.625.527t.82.67.796.563.903.49.768.162h.037q.357 0 .768-.16t.902-.492.795-.563.82-.67.626-.527q3.714-2.946 7.16-5.66.965-.77 1.796-2.064t.83-2.348zM32 7.43v19.428q0 1.18-.84 2.018t-2.017.84H2.857q-1.18 0-2.018-.84T0 26.858V7.428Q0 6.25.84 5.412t2.017-.838h26.286q1.18 0 2.018.84T32 7.428z"/></symbol>
		<symbol id="icon-heart" viewBox="0 0 32 32"><title>heart</title><path d="M16 29.714q-.464 0-.786-.32L4.07 18.643q-.178-.144-.49-.465t-.99-1.17-1.215-1.742-.955-2.16T0 10.642Q0 6.713 2.268 4.5t6.268-2.214q1.107 0 2.26.384t2.142 1.036 1.705 1.223T16 6.142q.643-.643 1.357-1.214t1.705-1.224 2.143-1.036 2.26-.384q4 0 6.267 2.214T32 10.643q0 3.946-4.09 8.036L16.787 29.392q-.32.32-.786.32z"/></symbol>
		<symbol id="icon-home" viewBox="0 0 30 32"><title>home</title><path d="M25.143 17.714v8.57q0 .465-.34.805t-.803.338h-6.857V20.57h-4.57v6.858H5.714q-.464 0-.804-.34t-.338-.803v-8.57q0-.02.01-.055t.008-.054l10.268-8.464 10.268 8.464q.018.036.018.107zm3.982-1.232l-1.107 1.32q-.143.162-.375.197h-.054q-.233 0-.376-.126L14.857 7.57 2.5 17.874q-.214.143-.43.125-.23-.037-.374-.197L.59 16.483q-.144-.18-.126-.42t.196-.385L13.5 4.982q.57-.464 1.356-.464t1.357.464l4.357 3.643V5.143q0-.25.16-.41t.412-.162h3.43q.25 0 .41.162t.16.41v7.287l3.912 3.25q.18.142.196.383t-.125.42z"/></symbol>
		<symbol id="icon-comment" viewBox="0 0 32 32"><title>comment</title><path d="M32 16q0 3.107-2.143 5.74t-5.82 4.162T16 27.43q-1.25 0-2.59-.144-3.535 3.125-8.213 4.32-.875.25-2.036.394-.303.036-.544-.16t-.313-.52v-.017q-.054-.07-.01-.214t.037-.18.08-.17l.107-.16.125-.153.143-.16q.125-.144.554-.617t.615-.68.554-.704.58-.91.48-1.055.465-1.356q-2.804-1.59-4.42-3.93T0 15.998q0-2.32 1.267-4.438t3.41-3.653T9.786 5.47 16 4.566q4.356 0 8.035 1.527t5.82 4.16T32 15.997z"/></symbol>
		<symbol id="icon-folder-open" viewBox="0 0 34 32"><title>folder-open</title><path d="M33.554 17q0 .554-.554 1.18l-6 7.07q-.768.91-2.152 1.545t-2.563.634H2.855q-.606 0-1.08-.233t-.472-.768q0-.555.554-1.18l6-7.07q.768-.912 2.152-1.546T12.57 16h19.43q.606 0 1.08.232t.472.768zm-6.125-6.143v2.857H12.57q-1.68 0-3.518.848t-2.93 2.134L.02 23.876q0-.072-.01-.224T0 23.43V6.285q0-1.643 1.18-2.82T4 2.285h5.714q1.643 0 2.82 1.18t1.18 2.82v.57h9.714q1.643 0 2.82 1.18t1.18 2.82z"/></symbol>
		<symbol id="icon-inbox" viewBox="0 0 27 32"><title>inbox</title><path d="M18.268 17.143h5.643L23.867 17l-.045-.143L20.036 8H7.392l-3.786 8.857q-.018.036-.045.143t-.044.143H9.16l1.695 3.43h5.714zm9.16.536v8.606q0 .464-.338.804t-.804.34H1.143q-.464 0-.804-.34T0 26.286V17.68q0-1.108.446-2.197l4.25-9.857q.18-.446.652-.75t.938-.304h14.857q.464 0 .938.304t.653.75l4.25 9.857q.446 1.09.446 2.196z"/></symbol>
		<symbol id="icon-pencil" viewBox="0 0 27 32"><title>pencil</title><path d="M6.482 27.43l1.625-1.626-4.196-4.196-1.624 1.625v1.91h2.286v2.287h1.91zm9.34-16.573q0-.393-.394-.393-.18 0-.304.125l-9.68 9.678q-.124.125-.124.304 0 .393.393.393.18 0 .304-.125l9.68-9.68q.124-.124.124-.303zm-.965-3.428l7.43 7.428L7.428 29.715H0v-7.43zm12.197 1.713q0 .946-.66 1.607l-2.965 2.964L16 6.284l2.964-2.945q.643-.68 1.607-.68.947 0 1.626.68l4.196 4.178q.66.696.66 1.625z"/></symbol>
		<symbol id="icon-tag" viewBox="0 0 27 32"><title>tag</title><path d="M8 8q0-.946-.67-1.616t-1.616-.67-1.616.67T3.428 8t.67 1.616 1.616.67 1.616-.67T8 8zm19.054 10.286q0 .946-.66 1.607l-8.77 8.786q-.695.66-1.624.66-.946 0-1.607-.66L1.625 15.892q-.68-.66-1.152-1.804T0 12V4.57q0-.928.68-1.606t1.606-.68h7.43q.945 0 2.088.474t1.82 1.152l12.77 12.75q.66.696.66 1.625z"/></symbol>
		<symbol id="icon-film" viewBox="0 0 34 32"><title>film</title><path d="M6.857 28.57v-2.285q0-.464-.34-.804t-.803-.338H3.428q-.464 0-.804.34t-.34.803v2.286q0 .465.34.805t.804.34h2.286q.464 0 .804-.34t.34-.804zm0-6.856v-2.286q0-.464-.34-.804t-.803-.34H3.428q-.464 0-.804.34t-.34.804v2.286q0 .464.34.804t.804.34h2.286q.464 0 .804-.34t.34-.804zm0-6.857V12.57q0-.463-.34-.803t-.803-.34H3.428q-.464 0-.804.34t-.34.804v2.287q0 .464.34.804t.804.34h2.286q.464 0 .804-.34t.34-.803zM25.143 28.57V19.43q0-.464-.34-.804t-.803-.34H10.286q-.464 0-.804.34t-.34.804v9.143q0 .465.34.805t.804.34H24q.464 0 .804-.34t.34-.804zM6.857 8V5.714q0-.464-.34-.804t-.803-.34H3.428q-.464 0-.804.34t-.34.804V8q0 .464.34.804t.804.34h2.286q.464 0 .804-.34T6.858 8zM32 28.57v-2.285q0-.464-.34-.804t-.803-.338H28.57q-.463 0-.803.34t-.34.803v2.286q0 .465.34.805t.804.34h2.287q.464 0 .804-.34t.34-.804zm-6.857-13.713V5.714q0-.464-.34-.804T24 4.57H10.286q-.464 0-.804.34t-.34.804v9.143q0 .464.34.804t.804.34H24q.464 0 .804-.34t.34-.803zM32 21.714v-2.286q0-.464-.34-.804t-.803-.34H28.57q-.463 0-.803.34t-.34.804v2.286q0 .464.34.804t.804.34h2.287q.464 0 .804-.34t.34-.804zm0-6.857V12.57q0-.463-.34-.803t-.803-.34H28.57q-.463 0-.803.34t-.34.804v2.287q0 .464.34.804t.804.34h2.287q.464 0 .804-.34t.34-.803zM32 8V5.714q0-.464-.34-.804t-.803-.34H28.57q-.463 0-.803.34t-.34.804V8q0 .464.34.804t.804.34h2.287q.464 0 .804-.34T32 8zm2.286-2.857v24q0 1.18-.84 2.018T31.43 32H2.857q-1.18 0-2.018-.84T0 29.144v-24q0-1.18.84-2.018t2.018-.84h28.57q1.18 0 2.02.84t.838 2.018z"/></symbol>
		<symbol id="icon-book" viewBox="0 0 30 32"><title>book</title><path d="M29.268 8.536q.714 1.018.32 2.304l-4.91 16.18q-.34 1.142-1.366 1.92t-2.188.776H4.642q-1.375 0-2.652-.955T.213 26.414q-.43-1.196-.036-2.268 0-.07.054-.482t.072-.66q.018-.144-.054-.385t-.054-.348q.036-.196.143-.375t.295-.42.295-.42q.41-.68.804-1.634t.537-1.633q.054-.18.01-.536t-.01-.5q.054-.195.304-.5t.305-.41q.375-.643.75-1.643t.446-1.607q.02-.16-.044-.57t.01-.5q.07-.233.392-.546t.393-.402q.34-.464.76-1.51t.49-1.722q.02-.143-.053-.455t-.036-.473q.037-.143.162-.32t.32-.412.305-.375q.143-.214.295-.545t.268-.625.286-.643.348-.57.473-.42.643-.206.848.098l-.018.054q.68-.16.91-.16h13.59q1.32 0 2.036 1t.32 2.32l-4.892 16.18q-.643 2.124-1.277 2.74t-2.295.616H2.784q-.482 0-.68.268-.195.286-.017.768.43 1.25 2.57 1.25H21.14q.518 0 1-.277t.625-.74l5.357-17.626q.125-.393.09-1.018.678.267 1.053.767zm-19 .035q-.07.233.036.403t.357.17H21.52q.232 0 .455-.17t.295-.402l.375-1.142q.07-.232-.036-.402t-.357-.17H11.393q-.232 0-.455.17t-.295.402zm-1.482 4.573q-.07.232.036.402t.357.17h10.856q.232 0 .455-.17t.296-.402L21.16 12q.072-.232-.035-.402t-.357-.17H9.91q-.23 0-.454.17T9.16 12z"/></symbol>
		<symbol id="icon-television" viewBox="0 0 34 32"><title>television</title><path d="M32 22.286V5.143q0-.232-.17-.402t-.402-.17H2.858q-.233 0-.403.17t-.17.403v17.143q0 .232.17.402t.402.17h28.57q.233 0 .403-.17t.17-.402zm2.286-17.143v17.143q0 1.18-.84 2.018t-2.017.84H18.285v2.285h6.286q.25 0 .41.16t.162.41v1.144q0 .25-.16.41t-.412.162H9.715q-.25 0-.41-.16t-.162-.412V28q0-.25.16-.41t.412-.16H16v-2.287H2.86q-1.18 0-2.018-.84T0 22.287V5.143q0-1.18.84-2.018t2.018-.84h28.57q1.18 0 2.02.84t.838 2.018z"/></symbol>
		<symbol id="icon-chevron-left" viewBox="0 0 24 32"><title>chevron-left</title><path d="M20.91 5.375l-9.48 9.482 9.48 9.482q.34.338.34.803t-.34.804l-2.963 2.964q-.34.34-.804.34t-.804-.34L3.09 15.66q-.34-.338-.34-.803t.34-.804L16.34.803q.338-.34.803-.34t.804.34l2.964 2.964q.34.34.34.804t-.34.805z"/></symbol>
		<symbol id="icon-chevron-right" viewBox="0 0 22 32"><title>chevron-right</title><path d="M19.768 15.66L6.518 28.91q-.34.34-.804.34t-.804-.34l-2.964-2.963q-.34-.34-.34-.804t.34-.804l9.482-9.483-9.482-9.482q-.34-.34-.34-.804t.34-.803L4.91.803q.34-.34.804-.34t.804.34l13.25 13.25q.34.34.34.804t-.34.804z"/></symbol>
		<symbol id="icon-chevron-up" viewBox="0 0 32 32"><title>chevron-up</title><path d="M30.054 23.768l-2.964 2.946q-.34.34-.804.34t-.804-.34L16 17.232l-9.482 9.482q-.34.34-.804.34t-.804-.34l-2.964-2.946q-.34-.34-.34-.813t.34-.813L15.196 8.91q.34-.34.804-.34t.804.34l13.25 13.232q.34.34.34.813t-.34.813z"/></symbol>
		<symbol id="icon-chevron-down" viewBox="0 0 32 32"><title>chevron-down</title><path d="M30.054 14.43l-13.25 13.23q-.34.34-.804.34t-.804-.34L1.946 14.43q-.34-.34-.34-.814t.34-.813L4.91 9.857q.34-.34.804-.34t.804.34L16 19.34l9.482-9.483q.34-.34.804-.34t.804.34l2.964 2.946q.34.34.34.813t-.34.813z"/></symbol>
		<symbol id="icon-library-thing" viewBox="0 0 32 32"><title>library-thing</title><path d="M12.507.017c2.006-.075 3.475.057 4.596.734v.918c-1.27.798-2.918.72-4.228 1.47v.182c.463 4.85-1.364 23.765 2.206 25.508 8.748 3.537 8.82-5.44 12.317-7.707l.552-.182.55.733c-.1 3.14-1.142 6.273-1.653 9.177-1.428.93-19.38 1.502-22.61.918l-.735-.734c.702-1.774 3.328-1.15 4.228-2.935.742-1.902.71-21.317 0-23.857C7.305 2.715 2.33 2.49 4.237.75 6.253-.293 10.264.976 12.51.018z"/></symbol>
		<symbol id="icon-goodreads" viewBox="0 0 32 32"><title>goodreads</title><path d="M26.044 21.26V.652h-2.74V4.52h-.086c-.264-.606-.634-1.186-1.112-1.74-.48-.548-1.02-1.034-1.63-1.454S19.192.58 18.452.346C17.716.12 16.928 0 16.086 0c-1.62 0-3.066.3-4.326.892-1.26.594-2.32 1.406-3.174 2.434-.854 1.03-1.506 2.232-1.956 3.608-.448 1.38-.674 2.834-.674 4.37 0 1.594.188 3.094.566 4.5.38 1.406.98 2.63 1.806 3.674.826 1.04 1.876 1.86 3.152 2.454 1.274.594 2.81.892 4.606.892 1.654 0 3.096-.42 4.328-1.26 1.23-.84 2.166-1.96 2.804-3.348h.084v3.04c0 2.726-.564 4.812-1.696 6.26-1.13 1.452-2.97 2.176-5.52 2.176-.754 0-1.494-.08-2.22-.24-.724-.16-1.38-.412-1.976-.76-.594-.348-1.1-.804-1.52-1.37s-.706-1.268-.85-2.108H6.78c.09 1.186.416 2.208.98 3.06.566.86 1.276 1.56 2.132 2.112.854.55 1.82.956 2.89 1.216 1.076.26 2.176.392 3.306.392 1.828 0 3.37-.246 4.632-.74 1.26-.492 2.28-1.2 3.06-2.13.786-.928 1.36-2.06 1.72-3.39.36-1.334.544-2.826.544-4.48zm-9.96-.74c-1.272 0-2.374-.252-3.3-.76-.928-.506-1.7-1.174-2.306-2-.61-.826-1.06-1.774-1.35-2.846-.29-1.074-.434-2.174-.434-3.306 0-1.16.14-2.296.412-3.412.276-1.116.72-2.11 1.326-2.98.61-.868 1.38-1.572 2.306-2.108s2.04-.804 3.346-.804 2.414.276 3.328.826c.912.552 1.66 1.276 2.24 2.174.58.9 1 1.9 1.26 3s.39 2.204.39 3.304c0 1.132-.152 2.232-.456 3.306-.304 1.072-.76 2.02-1.37 2.846s-1.364 1.494-2.26 2c-.9.508-1.944.76-3.134.76z"/></symbol>
		<symbol id="icon-twitter" viewBox="0 0 30 32"><title>twitter</title><path d="M28.93 7.286q-1.197 1.75-2.894 2.982.018.25.018.75 0 2.32-.68 4.634t-2.062 4.437-3.295 3.758-4.607 2.607-5.768.973q-4.84 0-8.857-2.59.625.072 1.393.072 4.018 0 7.16-2.464-1.874-.036-3.356-1.152t-2.036-2.848q.59.09 1.09.09.767 0 1.517-.197-2-.412-3.313-1.992t-1.313-3.67v-.07q1.214.678 2.607.73-1.18-.785-1.875-2.053t-.697-2.75q0-1.57.786-2.91 2.16 2.66 5.258 4.258t6.634 1.777q-.143-.68-.143-1.32 0-2.394 1.687-4.08t4.08-1.69q2.5 0 4.214 1.822Q26.428 6.017 28.143 5q-.66 2.053-2.536 3.178 1.66-.18 3.32-.893z"/></symbol>
		<symbol id="icon-facebook" viewBox="0 0 19 32"><title>facebook</title><path d="M17.125.214v4.714H14.32q-1.535 0-2.07.643t-.536 1.93v3.375h5.232l-.696 5.286h-4.536v13.555H6.25V16.16H1.696v-5.285H6.25V6.982q0-3.32 1.857-5.152T13.053 0q2.625 0 4.07.214z"/></symbol>
		<symbol id="icon-google-plus" viewBox="0 0 41 32"><title>google-plus</title><path d="M25.66 16.304q0 3.714-1.553 6.616t-4.43 4.536-6.588 1.634q-2.662 0-5.09-1.036t-4.18-2.786-2.785-4.18T0 16t1.035-5.09T3.82 6.733 8 3.946t5.09-1.036q5.106 0 8.767 3.43l-3.554 3.41q-2.09-2.018-5.214-2.018-2.197 0-4.064 1.107T6.07 11.847 4.983 16t1.09 4.152 2.954 3.01 4.063 1.106q1.48 0 2.722-.41t2.045-1.028 1.402-1.402.874-1.482.384-1.32h-7.43v-4.5h12.358q.214 1.124.214 2.178zm15.483-2.18v3.75H37.41v3.733h-3.75v-3.732h-3.73v-3.75h3.73v-3.732h3.75v3.732h3.733z"/></symbol>
		<symbol id="icon-linkedin" viewBox="0 0 27 32"><title>linkedin</title><path d="M6.232 11.16v17.697H.34V11.16H6.23zm.375-5.464Q6.625 7 5.705 7.876t-2.42.874H3.25q-1.465 0-2.358-.875T0 5.695q0-1.32.92-2.187t2.4-.866 2.376.866.91 2.188zM27.43 18.714v10.143h-5.876v-9.464q0-1.875-.723-2.938t-2.258-1.063q-1.125 0-1.884.616t-1.134 1.527q-.196.536-.196 1.446v9.876H9.483q.036-7.125.036-11.554t-.02-5.286l-.017-.857h5.875v2.57h-.036q.357-.57.732-1t1.01-.93 1.553-.776 2.045-.277q3.054 0 4.91 2.027t1.858 5.938z"/></symbol>
		<symbol id="icon-youtube" viewBox="0 0 27 32"><title>youtube</title><path d="M17.34 22.214v3.768q0 1.196-.697 1.196-.41 0-.804-.393V21.41q.392-.393.803-.393.696 0 .696 1.196zm6.035.018v.82h-1.607v-.82q0-1.214.804-1.214t.804 1.214zM6.125 18.34h1.91v-1.68h-5.57v1.68H4.34V28.5h1.786V18.34zm5.143 10.16h1.59v-8.82h-1.59v6.75q-.536.75-1.018.75-.32 0-.375-.376-.018-.054-.018-.625v-6.5h-1.59v6.98q0 .876.144 1.305.215.66 1.037.66.857 0 1.82-1.088v.964zm7.66-2.643V22.34q0-1.305-.16-1.77-.304-1-1.268-1-.893 0-1.66.965V16.66h-1.59V28.5h1.59v-.858q.803.982 1.66.982.964 0 1.268-.982.16-.482.16-1.786zm6.036-.178v-.233H23.34q0 .91-.037 1.09-.125.642-.714.642-.822 0-.822-1.233v-1.554h3.196v-1.84q0-1.41-.482-2.07-.696-.91-1.893-.91-1.215 0-1.912.91-.5.66-.5 2.07v3.09q0 1.41.518 2.07.696.912 1.93.912 1.285 0 1.928-.946.32-.483.375-.965.035-.16.035-1.036zM14.107 9.374v-3.75q0-1.232-.768-1.232t-.77 1.232v3.75q0 1.25.77 1.25t.767-1.25zm12.84 13.41q0 4.18-.465 6.25-.25 1.055-1.036 1.77t-1.82.82Q20.338 32 13.713 32t-9.91-.375q-1.037-.107-1.83-.82t-1.028-1.77q-.464-2-.464-6.25 0-4.178.464-6.25.25-1.053 1.036-1.767t1.84-.84q3.267-.356 9.892-.356t9.91.357q1.037.124 1.83.838t1.028 1.768q.464 2 .464 6.25zM9.124 0h1.82l-2.16 7.125v4.84H7v-4.84q-.25-1.32-1.09-3.786Q5.25 1.5 4.75 0H6.64L7.91 4.696zm6.607 5.946V9.07q0 1.447-.5 2.108-.66.91-1.893.91-1.197 0-1.876-.91-.5-.68-.5-2.107V5.947q0-1.43.5-2.09.68-.91 1.875-.91 1.23 0 1.892.91.5.662.5 2.09zm5.982-2.892v8.91H20.09v-.98q-.947 1.106-1.84 1.106-.82 0-1.054-.66-.143-.43-.143-1.34V3.054h1.625v6.554q0 .59.018.625.054.393.375.393.483 0 1.02-.768V3.054h1.624z"/></symbol>
		<symbol id="icon-instagram" viewBox="0 0 27 32"><title>instagram</title><path d="M18.286 16q0-1.893-1.34-3.232t-3.23-1.34-3.233 1.34T9.143 16t1.34 3.232 3.232 1.34 3.232-1.34T18.287 16zm2.464 0q0 2.93-2.054 4.982t-4.982 2.054-4.982-2.054T6.678 16t2.054-4.982 4.982-2.054 4.982 2.054T20.75 16zm1.93-7.32q0 .678-.483 1.16t-1.16.482-1.162-.482-.482-1.16.482-1.162 1.16-.482 1.162.482.482 1.16zm-8.966-3.93q-.125 0-1.366-.01t-1.884 0-1.723.055-1.838.18-1.277.33q-.893.356-1.57 1.035T3.017 7.91q-.196.52-.33 1.278t-.18 1.84-.053 1.722 0 1.884.01 1.366-.01 1.366 0 1.884.054 1.723.178 1.84.33 1.276q.357.892 1.036 1.57t1.57 1.036q.52.196 1.278.33t1.84.18 1.722.053 1.884 0 1.366-.01 1.366.01 1.884 0 1.723-.055 1.84-.18 1.276-.33q.893-.356 1.57-1.035t1.037-1.57q.196-.52.33-1.278t.18-1.84.053-1.722 0-1.884-.01-1.366.01-1.366 0-1.884-.054-1.723-.18-1.84-.33-1.276q-.357-.892-1.036-1.57t-1.57-1.036q-.52-.196-1.278-.33t-1.84-.18-1.722-.053-1.884 0-1.366.01zM27.43 16q0 4.09-.09 5.66-.18 3.715-2.214 5.75t-5.75 2.215q-1.57.09-5.66.09t-5.662-.09q-3.714-.18-5.75-2.214T.09 21.66Q0 20.09 0 16t.09-5.66q.18-3.715 2.214-5.75t5.75-2.215q1.57-.09 5.66-.09t5.662.09q3.714.18 5.75 2.214t2.214 5.75q.09 1.57.09 5.66z"/></symbol>
		<symbol id="icon-tumblr" viewBox="0 0 19 32"><title>tumblr</title><path d="M16.857 23.732l1.43 4.232q-.412.625-1.983 1.18t-3.16.57q-1.858.036-3.403-.464t-2.544-1.32T5.5 26.035t-.99-2.143-.296-2.107v-9.714h-3v-3.84Q2.5 7.77 3.518 6.993t1.625-1.607 1.036-1.82.606-1.77.268-1.58q.018-.088.08-.15T7.268 0h4.357v7.572h5.946v4.5h-5.963v9.25q0 .536.116 1t.402.938.884.74 1.454.25q1.393-.035 2.393-.517z"/></symbol>
		<symbol id="icon-pinterest" viewBox="0 0 23 32"><title>pinterest</title><path d="M0 10.66q0-1.928.67-3.633t1.848-2.973 2.714-2.196T8.536.465 12.143 0q2.82 0 5.25 1.19t3.946 3.454 1.517 5.125q0 1.713-.34 3.356t-1.07 3.16-1.786 2.67-2.588 1.84-3.375.688q-1.214 0-2.41-.57T9.57 19.34q-.18.696-.5 2.01t-.42 1.695-.366 1.268-.464 1.268-.57 1.116-.822 1.383-1.107 1.545l-.25.09-.16-.18q-.27-2.804-.27-3.357 0-1.642.385-3.687t1.188-5.134.93-3.626q-.572-1.16-.572-3.018 0-1.482.93-2.786T9.86 6.626q1.09 0 1.696.723t.607 1.83q0 1.178-.786 3.41t-.786 3.34q0 1.124.805 1.865t1.946.74q.983 0 1.822-.445t1.402-1.214 1-1.696.68-1.973.356-1.982.116-1.777q0-3.09-1.955-4.813t-5.097-1.723q-3.57 0-5.964 2.313T3.305 11.09q0 .787.223 1.52t.48 1.16.483.813.223.545q0 .5-.268 1.304t-.66.804q-.037 0-.305-.054-.91-.268-1.616-1t-1.09-1.688-.58-1.93-.195-1.9z"/></symbol>
	</defs>					
</svg>