<svg style="position: absolute; width: 0; height: 0; overflow: hidden;" version="1.1" xmlns="http://www.w3.org/2000/svg" xmlns:xlink="http://www.w3.org/1999/xlink">
<defs>
<symbol id="icon-library-thing" viewBox="0 0 32 32">
<title>library-thing</title>
<path class="path1" d="M12.507 0.017c2.006-0.075 3.475 0.057 4.596 0.734v0.917c-1.27 0.798-2.918 0.72-4.228 1.469v0.183c0.463 4.85-1.364 23.765 2.206 25.508 8.747 3.537 8.818-5.439 12.316-7.707l0.552-0.183 0.552 0.733c-0.1 3.14-1.143 6.272-1.654 9.176-1.428 0.931-19.38 1.502-22.61 0.918l-0.735-0.734c0.702-1.775 3.328-1.151 4.228-2.936 0.742-1.902 0.709-21.317 0-23.857-0.425-1.523-5.4-1.748-3.493-3.487 2.016-1.045 6.027 0.224 8.272-0.734z"></path>
</symbol>
<symbol id="icon-goodreads" viewBox="0 0 32 32">
<title>goodreads</title>
<path class="path1" d="M26.044 21.26v-20.608h-2.74v3.868h-0.086c-0.264-0.606-0.634-1.186-1.112-1.74-0.48-0.548-1.020-1.034-1.63-1.454s-1.284-0.746-2.024-0.98c-0.736-0.226-1.524-0.346-2.366-0.346-1.62 0-3.066 0.3-4.326 0.892-1.26 0.594-2.32 1.406-3.174 2.434-0.854 1.030-1.506 2.232-1.956 3.608-0.448 1.38-0.674 2.834-0.674 4.37 0 1.594 0.188 3.094 0.566 4.5 0.38 1.406 0.98 2.63 1.806 3.674 0.826 1.040 1.876 1.86 3.152 2.454 1.274 0.594 2.81 0.892 4.606 0.892 1.654 0 3.096-0.42 4.328-1.26 1.23-0.84 2.166-1.96 2.804-3.348h0.084v3.040c0 2.726-0.564 4.812-1.696 6.26-1.13 1.452-2.97 2.176-5.52 2.176-0.754 0-1.494-0.080-2.22-0.24-0.724-0.16-1.38-0.412-1.976-0.76-0.594-0.348-1.1-0.804-1.52-1.37s-0.706-1.268-0.85-2.108h-2.74c0.090 1.186 0.416 2.208 0.98 3.060 0.566 0.86 1.276 1.56 2.132 2.112 0.854 0.55 1.82 0.956 2.89 1.216 1.076 0.26 2.176 0.392 3.306 0.392 1.828 0 3.37-0.246 4.632-0.74 1.26-0.492 2.28-1.2 3.060-2.13 0.786-0.928 1.36-2.060 1.72-3.39 0.36-1.334 0.544-2.826 0.544-4.48zM16.084 20.52c-1.272 0-2.374-0.252-3.3-0.76-0.928-0.506-1.7-1.174-2.306-2-0.61-0.826-1.060-1.774-1.35-2.846-0.29-1.074-0.434-2.174-0.434-3.306 0-1.16 0.14-2.296 0.412-3.412 0.276-1.116 0.72-2.11 1.326-2.98 0.61-0.868 1.38-1.572 2.306-2.108s2.040-0.804 3.346-0.804 2.414 0.276 3.328 0.826c0.912 0.552 1.66 1.276 2.24 2.174 0.58 0.9 1 1.9 1.26 3s0.39 2.204 0.39 3.304c0 1.132-0.152 2.232-0.456 3.306-0.304 1.072-0.76 2.020-1.37 2.846s-1.364 1.494-2.26 2c-0.9 0.508-1.944 0.76-3.134 0.76z"></path>
</symbol>
<symbol id="icon-search" viewBox="0 0 30 32">
<title>search</title>
<path class="path1" d="M20.571 14.857q0-3.304-2.348-5.652t-5.652-2.348-5.652 2.348-2.348 5.652 2.348 5.652 5.652 2.348 5.652-2.348 2.348-5.652zM29.714 29.714q0 0.929-0.679 1.607t-1.607 0.679q-0.964 0-1.607-0.679l-6.125-6.107q-3.196 2.214-7.125 2.214-2.554 0-4.884-0.991t-4.018-2.679-2.679-4.018-0.991-4.884 0.991-4.884 2.679-4.018 4.018-2.679 4.884-0.991 4.884 0.991 4.018 2.679 2.679 4.018 0.991 4.884q0 3.929-2.214 7.125l6.125 6.125q0.661 0.661 0.661 1.607z"></path>
</symbol>
<symbol id="icon-envelope" viewBox="0 0 32 32">
<title>envelope</title>
<path class="path1" d="M29.714 26.857v-13.714q-0.571 0.643-1.232 1.179-4.786 3.679-7.607 6.036-0.911 0.768-1.482 1.196t-1.545 0.866-1.83 0.438h-0.036q-0.857 0-1.83-0.438t-1.545-0.866-1.482-1.196q-2.821-2.357-7.607-6.036-0.661-0.536-1.232-1.179v13.714q0 0.232 0.17 0.402t0.402 0.17h26.286q0.232 0 0.402-0.17t0.17-0.402zM29.714 8.089v-0.438t-0.009-0.232-0.054-0.223-0.098-0.161-0.161-0.134-0.25-0.045h-26.286q-0.232 0-0.402 0.17t-0.17 0.402q0 3 2.625 5.071 3.446 2.714 7.161 5.661 0.107 0.089 0.625 0.527t0.821 0.67 0.795 0.563 0.902 0.491 0.768 0.161h0.036q0.357 0 0.768-0.161t0.902-0.491 0.795-0.563 0.821-0.67 0.625-0.527q3.714-2.946 7.161-5.661 0.964-0.768 1.795-2.063t0.83-2.348zM32 7.429v19.429q0 1.179-0.839 2.018t-2.018 0.839h-26.286q-1.179 0-2.018-0.839t-0.839-2.018v-19.429q0-1.179 0.839-2.018t2.018-0.839h26.286q1.179 0 2.018 0.839t0.839 2.018z"></path>
</symbol>
<symbol id="icon-heart" viewBox="0 0 32 32">
<title>heart</title>
<path class="path1" d="M16 29.714q-0.464 0-0.786-0.321l-11.143-10.75q-0.179-0.143-0.491-0.464t-0.991-1.17-1.214-1.741-0.955-2.161-0.42-2.464q0-3.929 2.268-6.143t6.268-2.214q1.107 0 2.259 0.384t2.143 1.036 1.705 1.223 1.357 1.214q0.643-0.643 1.357-1.214t1.705-1.223 2.143-1.036 2.259-0.384q4 0 6.268 2.214t2.268 6.143q0 3.946-4.089 8.036l-11.125 10.714q-0.321 0.321-0.786 0.321z"></path>
</symbol>
<symbol id="icon-star" viewBox="0 0 30 32">
<title>star</title>
<path class="path1" d="M29.714 11.554q0 0.393-0.464 0.857l-6.482 6.321 1.536 8.929q0.018 0.125 0.018 0.357 0 0.375-0.188 0.634t-0.545 0.259q-0.339 0-0.714-0.214l-8.018-4.214-8.018 4.214q-0.393 0.214-0.714 0.214-0.375 0-0.563-0.259t-0.188-0.634q0-0.107 0.036-0.357l1.536-8.929-6.5-6.321q-0.446-0.482-0.446-0.857 0-0.661 1-0.821l8.964-1.304 4.018-8.125q0.339-0.732 0.875-0.732t0.875 0.732l4.018 8.125 8.964 1.304q1 0.161 1 0.821z"></path>
</symbol>
<symbol id="icon-star-o" viewBox="0 0 30 32">
<title>star-o</title>
<path class="path1" d="M20.304 17.929l5.464-5.304-7.536-1.107-3.375-6.821-3.375 6.821-7.536 1.107 5.464 5.304-1.304 7.518 6.75-3.554 6.732 3.554zM29.714 11.554q0 0.393-0.464 0.857l-6.482 6.321 1.536 8.929q0.018 0.125 0.018 0.357 0 0.893-0.732 0.893-0.339 0-0.714-0.214l-8.018-4.214-8.018 4.214q-0.393 0.214-0.714 0.214-0.375 0-0.563-0.259t-0.188-0.634q0-0.107 0.036-0.357l1.536-8.929-6.5-6.321q-0.446-0.482-0.446-0.857 0-0.661 1-0.821l8.964-1.304 4.018-8.125q0.339-0.732 0.875-0.732t0.875 0.732l4.018 8.125 8.964 1.304q1 0.161 1 0.821z"></path>
</symbol>
<symbol id="icon-film" viewBox="0 0 34 32">
<title>film</title>
<path class="path1" d="M6.857 28.571v-2.286q0-0.464-0.339-0.804t-0.804-0.339h-2.286q-0.464 0-0.804 0.339t-0.339 0.804v2.286q0 0.464 0.339 0.804t0.804 0.339h2.286q0.464 0 0.804-0.339t0.339-0.804zM6.857 21.714v-2.286q0-0.464-0.339-0.804t-0.804-0.339h-2.286q-0.464 0-0.804 0.339t-0.339 0.804v2.286q0 0.464 0.339 0.804t0.804 0.339h2.286q0.464 0 0.804-0.339t0.339-0.804zM6.857 14.857v-2.286q0-0.464-0.339-0.804t-0.804-0.339h-2.286q-0.464 0-0.804 0.339t-0.339 0.804v2.286q0 0.464 0.339 0.804t0.804 0.339h2.286q0.464 0 0.804-0.339t0.339-0.804zM25.143 28.571v-9.143q0-0.464-0.339-0.804t-0.804-0.339h-13.714q-0.464 0-0.804 0.339t-0.339 0.804v9.143q0 0.464 0.339 0.804t0.804 0.339h13.714q0.464 0 0.804-0.339t0.339-0.804zM6.857 8v-2.286q0-0.464-0.339-0.804t-0.804-0.339h-2.286q-0.464 0-0.804 0.339t-0.339 0.804v2.286q0 0.464 0.339 0.804t0.804 0.339h2.286q0.464 0 0.804-0.339t0.339-0.804zM32 28.571v-2.286q0-0.464-0.339-0.804t-0.804-0.339h-2.286q-0.464 0-0.804 0.339t-0.339 0.804v2.286q0 0.464 0.339 0.804t0.804 0.339h2.286q0.464 0 0.804-0.339t0.339-0.804zM25.143 14.857v-9.143q0-0.464-0.339-0.804t-0.804-0.339h-13.714q-0.464 0-0.804 0.339t-0.339 0.804v9.143q0 0.464 0.339 0.804t0.804 0.339h13.714q0.464 0 0.804-0.339t0.339-0.804zM32 21.714v-2.286q0-0.464-0.339-0.804t-0.804-0.339h-2.286q-0.464 0-0.804 0.339t-0.339 0.804v2.286q0 0.464 0.339 0.804t0.804 0.339h2.286q0.464 0 0.804-0.339t0.339-0.804zM32 14.857v-2.286q0-0.464-0.339-0.804t-0.804-0.339h-2.286q-0.464 0-0.804 0.339t-0.339 0.804v2.286q0 0.464 0.339 0.804t0.804 0.339h2.286q0.464 0 0.804-0.339t0.339-0.804zM32 8v-2.286q0-0.464-0.339-0.804t-0.804-0.339h-2.286q-0.464 0-0.804 0.339t-0.339 0.804v2.286q0 0.464 0.339 0.804t0.804 0.339h2.286q0.464 0 0.804-0.339t0.339-0.804zM34.286 5.143v24q0 1.179-0.839 2.018t-2.018 0.839h-28.571q-1.179 0-2.018-0.839t-0.839-2.018v-24q0-1.179 0.839-2.018t2.018-0.839h28.571q1.179 0 2.018 0.839t0.839 2.018z"></path>
</symbol>
<symbol id="icon-book" viewBox="0 0 30 32">
<title>book</title>
<path class="path1" d="M29.268 8.536q0.714 1.018 0.321 2.304l-4.911 16.179q-0.339 1.143-1.366 1.92t-2.188 0.777h-16.482q-1.375 0-2.652-0.955t-1.777-2.348q-0.429-1.196-0.036-2.268 0-0.071 0.054-0.482t0.071-0.661q0.018-0.143-0.054-0.384t-0.054-0.348q0.036-0.196 0.143-0.375t0.295-0.42 0.295-0.42q0.411-0.679 0.804-1.634t0.536-1.634q0.054-0.179 0.009-0.536t-0.009-0.5q0.054-0.196 0.304-0.5t0.304-0.411q0.375-0.643 0.75-1.643t0.446-1.607q0.018-0.161-0.045-0.571t0.009-0.5q0.071-0.232 0.393-0.545t0.393-0.402q0.339-0.464 0.759-1.509t0.491-1.723q0.018-0.143-0.054-0.455t-0.036-0.473q0.036-0.143 0.161-0.321t0.321-0.411 0.304-0.375q0.143-0.214 0.295-0.545t0.268-0.625 0.286-0.643 0.348-0.571 0.473-0.42 0.643-0.205 0.848 0.098l-0.018 0.054q0.679-0.161 0.911-0.161h13.589q1.321 0 2.036 1t0.321 2.321l-4.893 16.179q-0.643 2.125-1.277 2.741t-2.295 0.616h-15.518q-0.482 0-0.679 0.268-0.196 0.286-0.018 0.768 0.429 1.25 2.571 1.25h16.482q0.518 0 1-0.277t0.625-0.741l5.357-17.625q0.125-0.393 0.089-1.018 0.679 0.268 1.054 0.768zM10.268 8.571q-0.071 0.232 0.036 0.402t0.357 0.17h10.857q0.232 0 0.455-0.17t0.295-0.402l0.375-1.143q0.071-0.232-0.036-0.402t-0.357-0.17h-10.857q-0.232 0-0.455 0.17t-0.295 0.402zM8.786 13.143q-0.071 0.232 0.036 0.402t0.357 0.17h10.857q0.232 0 0.455-0.17t0.295-0.402l0.375-1.143q0.071-0.232-0.036-0.402t-0.357-0.17h-10.857q-0.232 0-0.455 0.17t-0.295 0.402z"></path>
</symbol>
<symbol id="icon-chevron-left" viewBox="0 0 24 32">
<title>chevron-left</title>
<path class="path1" d="M20.911 5.375l-9.482 9.482 9.482 9.482q0.339 0.339 0.339 0.804t-0.339 0.804l-2.964 2.964q-0.339 0.339-0.804 0.339t-0.804-0.339l-13.25-13.25q-0.339-0.339-0.339-0.804t0.339-0.804l13.25-13.25q0.339-0.339 0.804-0.339t0.804 0.339l2.964 2.964q0.339 0.339 0.339 0.804t-0.339 0.804z"></path>
</symbol>
<symbol id="icon-chevron-right" viewBox="0 0 22 32">
<title>chevron-right</title>
<path class="path1" d="M19.768 15.661l-13.25 13.25q-0.339 0.339-0.804 0.339t-0.804-0.339l-2.964-2.964q-0.339-0.339-0.339-0.804t0.339-0.804l9.482-9.482-9.482-9.482q-0.339-0.339-0.339-0.804t0.339-0.804l2.964-2.964q0.339-0.339 0.804-0.339t0.804 0.339l13.25 13.25q0.339 0.339 0.339 0.804t-0.339 0.804z"></path>
</symbol>
<symbol id="icon-chevron-up" viewBox="0 0 32 32">
<title>chevron-up</title>
<path class="path1" d="M30.054 23.768l-2.964 2.946q-0.339 0.339-0.804 0.339t-0.804-0.339l-9.482-9.482-9.482 9.482q-0.339 0.339-0.804 0.339t-0.804-0.339l-2.964-2.946q-0.339-0.339-0.339-0.813t0.339-0.813l13.25-13.232q0.339-0.339 0.804-0.339t0.804 0.339l13.25 13.232q0.339 0.339 0.339 0.813t-0.339 0.813z"></path>
</symbol>
<symbol id="icon-chevron-down" viewBox="0 0 32 32">
<title>chevron-down</title>
<path class="path1" d="M30.054 14.429l-13.25 13.232q-0.339 0.339-0.804 0.339t-0.804-0.339l-13.25-13.232q-0.339-0.339-0.339-0.813t0.339-0.813l2.964-2.946q0.339-0.339 0.804-0.339t0.804 0.339l9.482 9.482 9.482-9.482q0.339-0.339 0.804-0.339t0.804 0.339l2.964 2.946q0.339 0.339 0.339 0.813t-0.339 0.813z"></path>
</symbol>
<symbol id="icon-heart-o" viewBox="0 0 32 32">
<title>heart-o</title>
<path class="path1" d="M29.714 10.643q0-1.446-0.384-2.554t-0.982-1.759-1.455-1.063-1.679-0.554-1.75-0.143-2 0.455-1.973 1.143-1.545 1.286-1.071 1.098q-0.321 0.393-0.875 0.393t-0.875-0.393q-0.429-0.5-1.071-1.098t-1.545-1.286-1.973-1.143-2-0.455-1.75 0.143-1.679 0.554-1.455 1.063-0.982 1.759-0.384 2.554q0 3 3.339 6.339l10.375 10 10.357-9.982q3.357-3.357 3.357-6.357zM32 10.643q0 3.946-4.089 8.036l-11.125 10.714q-0.321 0.321-0.786 0.321t-0.786-0.321l-11.143-10.75q-0.179-0.143-0.491-0.464t-0.991-1.17-1.214-1.741-0.955-2.161-0.42-2.464q0-3.929 2.268-6.143t6.268-2.214q1.107 0 2.259 0.384t2.143 1.036 1.705 1.223 1.357 1.214q0.643-0.643 1.357-1.214t1.705-1.223 2.143-1.036 2.259-0.384q4 0 6.268 2.214t2.268 6.143z"></path>
</symbol>
<symbol id="icon-twitter" viewBox="0 0 30 32">
<title>twitter</title>
<path class="path1" d="M28.929 7.286q-1.196 1.75-2.893 2.982 0.018 0.25 0.018 0.75 0 2.321-0.679 4.634t-2.063 4.437-3.295 3.759-4.607 2.607-5.768 0.973q-4.839 0-8.857-2.589 0.625 0.071 1.393 0.071 4.018 0 7.161-2.464-1.875-0.036-3.357-1.152t-2.036-2.848q0.589 0.089 1.089 0.089 0.768 0 1.518-0.196-2-0.411-3.313-1.991t-1.313-3.67v-0.071q1.214 0.679 2.607 0.732-1.179-0.786-1.875-2.054t-0.696-2.75q0-1.571 0.786-2.911 2.161 2.661 5.259 4.259t6.634 1.777q-0.143-0.679-0.143-1.321 0-2.393 1.688-4.080t4.080-1.688q2.5 0 4.214 1.821 1.946-0.375 3.661-1.393-0.661 2.054-2.536 3.179 1.661-0.179 3.321-0.893z"></path>
</symbol>
<symbol id="icon-facebook" viewBox="0 0 19 32">
<title>facebook</title>
<path class="path1" d="M17.125 0.214v4.714h-2.804q-1.536 0-2.071 0.643t-0.536 1.929v3.375h5.232l-0.696 5.286h-4.536v13.554h-5.464v-13.554h-4.554v-5.286h4.554v-3.893q0-3.321 1.857-5.152t4.946-1.83q2.625 0 4.071 0.214z"></path>
</symbol>
<symbol id="icon-google-plus" viewBox="0 0 41 32">
<title>google-plus</title>
<path class="path1" d="M25.661 16.304q0 3.714-1.554 6.616t-4.429 4.536-6.589 1.634q-2.661 0-5.089-1.036t-4.179-2.786-2.786-4.179-1.036-5.089 1.036-5.089 2.786-4.179 4.179-2.786 5.089-1.036q5.107 0 8.768 3.429l-3.554 3.411q-2.089-2.018-5.214-2.018-2.196 0-4.063 1.107t-2.955 3.009-1.089 4.152 1.089 4.152 2.955 3.009 4.063 1.107q1.482 0 2.723-0.411t2.045-1.027 1.402-1.402 0.875-1.482 0.384-1.321h-7.429v-4.5h12.357q0.214 1.125 0.214 2.179zM41.143 14.125v3.75h-3.732v3.732h-3.75v-3.732h-3.732v-3.75h3.732v-3.732h3.75v3.732h3.732z"></path>
</symbol>
<symbol id="icon-linkedin" viewBox="0 0 27 32">
<title>linkedin</title>
<path class="path1" d="M6.232 11.161v17.696h-5.893v-17.696h5.893zM6.607 5.696q0.018 1.304-0.902 2.179t-2.42 0.875h-0.036q-1.464 0-2.357-0.875t-0.893-2.179q0-1.321 0.92-2.188t2.402-0.866 2.375 0.866 0.911 2.188zM27.429 18.714v10.143h-5.875v-9.464q0-1.875-0.723-2.938t-2.259-1.063q-1.125 0-1.884 0.616t-1.134 1.527q-0.196 0.536-0.196 1.446v9.875h-5.875q0.036-7.125 0.036-11.554t-0.018-5.286l-0.018-0.857h5.875v2.571h-0.036q0.357-0.571 0.732-1t1.009-0.929 1.554-0.777 2.045-0.277q3.054 0 4.911 2.027t1.857 5.938z"></path>
</symbol>
<symbol id="icon-youtube" viewBox="0 0 27 32">
<title>youtube</title>
<path class="path1" d="M17.339 22.214v3.768q0 1.196-0.696 1.196-0.411 0-0.804-0.393v-5.375q0.393-0.393 0.804-0.393 0.696 0 0.696 1.196zM23.375 22.232v0.821h-1.607v-0.821q0-1.214 0.804-1.214t0.804 1.214zM6.125 18.339h1.911v-1.679h-5.571v1.679h1.875v10.161h1.786v-10.161zM11.268 28.5h1.589v-8.821h-1.589v6.75q-0.536 0.75-1.018 0.75-0.321 0-0.375-0.375-0.018-0.054-0.018-0.625v-6.5h-1.589v6.982q0 0.875 0.143 1.304 0.214 0.661 1.036 0.661 0.857 0 1.821-1.089v0.964zM18.929 25.857v-3.518q0-1.304-0.161-1.768-0.304-1-1.268-1-0.893 0-1.661 0.964v-3.875h-1.589v11.839h1.589v-0.857q0.804 0.982 1.661 0.982 0.964 0 1.268-0.982 0.161-0.482 0.161-1.786zM24.964 25.679v-0.232h-1.625q0 0.911-0.036 1.089-0.125 0.643-0.714 0.643-0.821 0-0.821-1.232v-1.554h3.196v-1.839q0-1.411-0.482-2.071-0.696-0.911-1.893-0.911-1.214 0-1.911 0.911-0.5 0.661-0.5 2.071v3.089q0 1.411 0.518 2.071 0.696 0.911 1.929 0.911 1.286 0 1.929-0.946 0.321-0.482 0.375-0.964 0.036-0.161 0.036-1.036zM14.107 9.375v-3.75q0-1.232-0.768-1.232t-0.768 1.232v3.75q0 1.25 0.768 1.25t0.768-1.25zM26.946 22.786q0 4.179-0.464 6.25-0.25 1.054-1.036 1.768t-1.821 0.821q-3.286 0.375-9.911 0.375t-9.911-0.375q-1.036-0.107-1.83-0.821t-1.027-1.768q-0.464-2-0.464-6.25 0-4.179 0.464-6.25 0.25-1.054 1.036-1.768t1.839-0.839q3.268-0.357 9.893-0.357t9.911 0.357q1.036 0.125 1.83 0.839t1.027 1.768q0.464 2 0.464 6.25zM9.125 0h1.821l-2.161 7.125v4.839h-1.786v-4.839q-0.25-1.321-1.089-3.786-0.661-1.839-1.161-3.339h1.893l1.268 4.696zM15.732 5.946v3.125q0 1.446-0.5 2.107-0.661 0.911-1.893 0.911-1.196 0-1.875-0.911-0.5-0.679-0.5-2.107v-3.125q0-1.429 0.5-2.089 0.679-0.911 1.875-0.911 1.232 0 1.893 0.911 0.5 0.661 0.5 2.089zM21.714 3.054v8.911h-1.625v-0.982q-0.946 1.107-1.839 1.107-0.821 0-1.054-0.661-0.143-0.429-0.143-1.339v-7.036h1.625v6.554q0 0.589 0.018 0.625 0.054 0.393 0.375 0.393 0.482 0 1.018-0.768v-6.804h1.625z"></path>
</symbol>
<symbol id="icon-instagram" viewBox="0 0 27 32">
<title>instagram</title>
<path class="path1" d="M18.286 16q0-1.893-1.339-3.232t-3.232-1.339-3.232 1.339-1.339 3.232 1.339 3.232 3.232 1.339 3.232-1.339 1.339-3.232zM20.75 16q0 2.929-2.054 4.982t-4.982 2.054-4.982-2.054-2.054-4.982 2.054-4.982 4.982-2.054 4.982 2.054 2.054 4.982zM22.679 8.679q0 0.679-0.482 1.161t-1.161 0.482-1.161-0.482-0.482-1.161 0.482-1.161 1.161-0.482 1.161 0.482 0.482 1.161zM13.714 4.75q-0.125 0-1.366-0.009t-1.884 0-1.723 0.054-1.839 0.179-1.277 0.33q-0.893 0.357-1.571 1.036t-1.036 1.571q-0.196 0.518-0.33 1.277t-0.179 1.839-0.054 1.723 0 1.884 0.009 1.366-0.009 1.366 0 1.884 0.054 1.723 0.179 1.839 0.33 1.277q0.357 0.893 1.036 1.571t1.571 1.036q0.518 0.196 1.277 0.33t1.839 0.179 1.723 0.054 1.884 0 1.366-0.009 1.366 0.009 1.884 0 1.723-0.054 1.839-0.179 1.277-0.33q0.893-0.357 1.571-1.036t1.036-1.571q0.196-0.518 0.33-1.277t0.179-1.839 0.054-1.723 0-1.884-0.009-1.366 0.009-1.366 0-1.884-0.054-1.723-0.179-1.839-0.33-1.277q-0.357-0.893-1.036-1.571t-1.571-1.036q-0.518-0.196-1.277-0.33t-1.839-0.179-1.723-0.054-1.884 0-1.366 0.009zM27.429 16q0 4.089-0.089 5.661-0.179 3.714-2.214 5.75t-5.75 2.214q-1.571 0.089-5.661 0.089t-5.661-0.089q-3.714-0.179-5.75-2.214t-2.214-5.75q-0.089-1.571-0.089-5.661t0.089-5.661q0.179-3.714 2.214-5.75t5.75-2.214q1.571-0.089 5.661-0.089t5.661 0.089q3.714 0.179 5.75 2.214t2.214 5.75q0.089 1.571 0.089 5.661z"></path>
</symbol>
<symbol id="icon-tumblr" viewBox="0 0 19 32">
<title>tumblr</title>
<path class="path1" d="M16.857 23.732l1.429 4.232q-0.411 0.625-1.982 1.179t-3.161 0.571q-1.857 0.036-3.402-0.464t-2.545-1.321-1.696-1.893-0.991-2.143-0.295-2.107v-9.714h-3v-3.839q1.286-0.464 2.304-1.241t1.625-1.607 1.036-1.821 0.607-1.768 0.268-1.58q0.018-0.089 0.080-0.152t0.134-0.063h4.357v7.571h5.946v4.5h-5.964v9.25q0 0.536 0.116 1t0.402 0.938 0.884 0.741 1.455 0.25q1.393-0.036 2.393-0.518z"></path>
</symbol>
<symbol id="icon-pinterest" viewBox="0 0 23 32">
<title>pinterest</title>
<path class="path1" d="M0 10.661q0-1.929 0.67-3.634t1.848-2.973 2.714-2.196 3.304-1.393 3.607-0.464q2.821 0 5.25 1.188t3.946 3.455 1.518 5.125q0 1.714-0.339 3.357t-1.071 3.161-1.786 2.67-2.589 1.839-3.375 0.688q-1.214 0-2.411-0.571t-1.714-1.571q-0.179 0.696-0.5 2.009t-0.42 1.696-0.366 1.268-0.464 1.268-0.571 1.116-0.821 1.384-1.107 1.545l-0.25 0.089-0.161-0.179q-0.268-2.804-0.268-3.357 0-1.643 0.384-3.688t1.188-5.134 0.929-3.625q-0.571-1.161-0.571-3.018 0-1.482 0.929-2.786t2.357-1.304q1.089 0 1.696 0.723t0.607 1.83q0 1.179-0.786 3.411t-0.786 3.339q0 1.125 0.804 1.866t1.946 0.741q0.982 0 1.821-0.446t1.402-1.214 1-1.696 0.679-1.973 0.357-1.982 0.116-1.777q0-3.089-1.955-4.813t-5.098-1.723q-3.571 0-5.964 2.313t-2.393 5.866q0 0.786 0.223 1.518t0.482 1.161 0.482 0.813 0.223 0.545q0 0.5-0.268 1.304t-0.661 0.804q-0.036 0-0.304-0.054-0.911-0.268-1.616-1t-1.089-1.688-0.58-1.929-0.196-1.902z"></path>
</symbol>
<symbol id="icon-television" viewBox="0 0 34 32">
<title>television</title>
<path class="path1" d="M32 22.286v-17.143q0-0.232-0.17-0.402t-0.402-0.17h-28.571q-0.232 0-0.402 0.17t-0.17 0.402v17.143q0 0.232 0.17 0.402t0.402 0.17h28.571q0.232 0 0.402-0.17t0.17-0.402zM34.286 5.143v17.143q0 1.179-0.839 2.018t-2.018 0.839h-13.143v2.286h6.286q0.25 0 0.411 0.161t0.161 0.411v1.143q0 0.25-0.161 0.411t-0.411 0.161h-14.857q-0.25 0-0.411-0.161t-0.161-0.411v-1.143q0-0.25 0.161-0.411t0.411-0.161h6.286v-2.286h-13.143q-1.179 0-2.018-0.839t-0.839-2.018v-17.143q0-1.179 0.839-2.018t2.018-0.839h28.571q1.179 0 2.018 0.839t0.839 2.018z"></path>
</symbol>
</defs>
</svg>